<mxfile host="app.diagrams.net" modified="2024-04-29T13:01:30.095Z" agent="Mozilla/5.0 (Windows NT 10.0; Win64; x64; rv:125.0) Gecko/20100101 Firefox/125.0" etag="ZxEXFow2AiA_A_KhfPI8" version="24.3.1" type="device">
  <diagram name="Strona-1" id="NVGFfIz5JYJGMQ3OhnmC">
    <mxGraphModel dx="1359" dy="1321" grid="1" gridSize="10" guides="1" tooltips="1" connect="1" arrows="1" fold="1" page="1" pageScale="1" pageWidth="827" pageHeight="1169" math="0" shadow="0">
      <root>
        <mxCell id="0" />
        <mxCell id="1" parent="0" />
        <mxCell id="wflBRl-DDs7bufTYdtTd-7" value="" style="edgeStyle=orthogonalEdgeStyle;rounded=0;orthogonalLoop=1;jettySize=auto;html=1;" edge="1" parent="1" source="wflBRl-DDs7bufTYdtTd-1" target="wflBRl-DDs7bufTYdtTd-5">
          <mxGeometry relative="1" as="geometry" />
        </mxCell>
        <mxCell id="wflBRl-DDs7bufTYdtTd-9" style="edgeStyle=orthogonalEdgeStyle;rounded=0;orthogonalLoop=1;jettySize=auto;html=1;entryX=0.5;entryY=0;entryDx=0;entryDy=0;" edge="1" parent="1" source="wflBRl-DDs7bufTYdtTd-1" target="wflBRl-DDs7bufTYdtTd-8">
          <mxGeometry relative="1" as="geometry">
            <Array as="points">
              <mxPoint x="445" y="180" />
              <mxPoint x="180" y="180" />
            </Array>
          </mxGeometry>
        </mxCell>
        <mxCell id="wflBRl-DDs7bufTYdtTd-11" style="edgeStyle=orthogonalEdgeStyle;rounded=0;orthogonalLoop=1;jettySize=auto;html=1;entryX=0.5;entryY=0;entryDx=0;entryDy=0;" edge="1" parent="1" source="wflBRl-DDs7bufTYdtTd-1" target="wflBRl-DDs7bufTYdtTd-10">
          <mxGeometry relative="1" as="geometry">
            <Array as="points">
              <mxPoint x="445" y="180" />
              <mxPoint x="720" y="180" />
            </Array>
          </mxGeometry>
        </mxCell>
        <mxCell id="wflBRl-DDs7bufTYdtTd-1" value="Znajdź Grupę" style="rounded=0;whiteSpace=wrap;html=1;" vertex="1" parent="1">
          <mxGeometry x="350" y="80" width="190" height="80" as="geometry" />
        </mxCell>
        <mxCell id="wflBRl-DDs7bufTYdtTd-3" style="edgeStyle=orthogonalEdgeStyle;rounded=0;orthogonalLoop=1;jettySize=auto;html=1;" edge="1" parent="1" source="wflBRl-DDs7bufTYdtTd-2" target="wflBRl-DDs7bufTYdtTd-1">
          <mxGeometry relative="1" as="geometry" />
        </mxCell>
        <mxCell id="wflBRl-DDs7bufTYdtTd-4" value="Dołączenie do grupy" style="edgeLabel;html=1;align=center;verticalAlign=middle;resizable=0;points=[];" vertex="1" connectable="0" parent="wflBRl-DDs7bufTYdtTd-3">
          <mxGeometry x="-0.104" relative="1" as="geometry">
            <mxPoint as="offset" />
          </mxGeometry>
        </mxCell>
        <mxCell id="wflBRl-DDs7bufTYdtTd-2" value="" style="ellipse;whiteSpace=wrap;html=1;aspect=fixed;fillColor=#f5f5f5;fontColor=#333333;strokeColor=#666666;" vertex="1" parent="1">
          <mxGeometry x="60" y="100" width="40" height="40" as="geometry" />
        </mxCell>
        <mxCell id="wflBRl-DDs7bufTYdtTd-13" style="edgeStyle=orthogonalEdgeStyle;rounded=0;orthogonalLoop=1;jettySize=auto;html=1;" edge="1" parent="1" source="wflBRl-DDs7bufTYdtTd-5" target="wflBRl-DDs7bufTYdtTd-12">
          <mxGeometry relative="1" as="geometry" />
        </mxCell>
        <mxCell id="wflBRl-DDs7bufTYdtTd-5" value="Podanie lokalizacji" style="rounded=0;whiteSpace=wrap;html=1;" vertex="1" parent="1">
          <mxGeometry x="350" y="230" width="190" height="80" as="geometry" />
        </mxCell>
        <mxCell id="wflBRl-DDs7bufTYdtTd-15" style="edgeStyle=orthogonalEdgeStyle;rounded=0;orthogonalLoop=1;jettySize=auto;html=1;entryX=0.5;entryY=0;entryDx=0;entryDy=0;" edge="1" parent="1" source="wflBRl-DDs7bufTYdtTd-8" target="wflBRl-DDs7bufTYdtTd-12">
          <mxGeometry relative="1" as="geometry">
            <Array as="points">
              <mxPoint x="180" y="340" />
              <mxPoint x="445" y="340" />
            </Array>
          </mxGeometry>
        </mxCell>
        <mxCell id="wflBRl-DDs7bufTYdtTd-8" value="Ustawienie filtrów" style="rounded=0;whiteSpace=wrap;html=1;" vertex="1" parent="1">
          <mxGeometry x="90" y="230" width="180" height="80" as="geometry" />
        </mxCell>
        <mxCell id="wflBRl-DDs7bufTYdtTd-14" style="edgeStyle=orthogonalEdgeStyle;rounded=0;orthogonalLoop=1;jettySize=auto;html=1;" edge="1" parent="1" source="wflBRl-DDs7bufTYdtTd-10" target="wflBRl-DDs7bufTYdtTd-12">
          <mxGeometry relative="1" as="geometry">
            <Array as="points">
              <mxPoint x="720" y="340" />
              <mxPoint x="445" y="340" />
            </Array>
          </mxGeometry>
        </mxCell>
        <mxCell id="wflBRl-DDs7bufTYdtTd-10" value="Ustawienie dystansu" style="rounded=0;whiteSpace=wrap;html=1;" vertex="1" parent="1">
          <mxGeometry x="620" y="230" width="200" height="80" as="geometry" />
        </mxCell>
        <mxCell id="wflBRl-DDs7bufTYdtTd-19" style="edgeStyle=orthogonalEdgeStyle;rounded=0;orthogonalLoop=1;jettySize=auto;html=1;" edge="1" parent="1" source="wflBRl-DDs7bufTYdtTd-12" target="wflBRl-DDs7bufTYdtTd-18">
          <mxGeometry relative="1" as="geometry" />
        </mxCell>
        <mxCell id="wflBRl-DDs7bufTYdtTd-12" value="Wyświetlenie grup" style="rounded=0;whiteSpace=wrap;html=1;" vertex="1" parent="1">
          <mxGeometry x="350" y="380" width="190" height="70" as="geometry" />
        </mxCell>
        <mxCell id="wflBRl-DDs7bufTYdtTd-22" style="edgeStyle=orthogonalEdgeStyle;rounded=0;orthogonalLoop=1;jettySize=auto;html=1;entryX=0.5;entryY=0;entryDx=0;entryDy=0;" edge="1" parent="1" source="wflBRl-DDs7bufTYdtTd-18" target="wflBRl-DDs7bufTYdtTd-20">
          <mxGeometry relative="1" as="geometry" />
        </mxCell>
        <mxCell id="wflBRl-DDs7bufTYdtTd-23" value="Publiczna" style="edgeLabel;html=1;align=center;verticalAlign=middle;resizable=0;points=[];" vertex="1" connectable="0" parent="wflBRl-DDs7bufTYdtTd-22">
          <mxGeometry x="0.0977" y="-4" relative="1" as="geometry">
            <mxPoint as="offset" />
          </mxGeometry>
        </mxCell>
        <mxCell id="wflBRl-DDs7bufTYdtTd-24" style="edgeStyle=orthogonalEdgeStyle;rounded=0;orthogonalLoop=1;jettySize=auto;html=1;entryX=0.5;entryY=0;entryDx=0;entryDy=0;" edge="1" parent="1" source="wflBRl-DDs7bufTYdtTd-18" target="wflBRl-DDs7bufTYdtTd-21">
          <mxGeometry relative="1" as="geometry" />
        </mxCell>
        <mxCell id="wflBRl-DDs7bufTYdtTd-25" value="Prywatna" style="edgeLabel;html=1;align=center;verticalAlign=middle;resizable=0;points=[];" vertex="1" connectable="0" parent="wflBRl-DDs7bufTYdtTd-24">
          <mxGeometry x="0.0977" y="-1" relative="1" as="geometry">
            <mxPoint as="offset" />
          </mxGeometry>
        </mxCell>
        <mxCell id="wflBRl-DDs7bufTYdtTd-18" value="Stan grupy" style="rhombus;whiteSpace=wrap;html=1;" vertex="1" parent="1">
          <mxGeometry x="405" y="530" width="80" height="80" as="geometry" />
        </mxCell>
        <mxCell id="wflBRl-DDs7bufTYdtTd-45" style="edgeStyle=orthogonalEdgeStyle;rounded=0;orthogonalLoop=1;jettySize=auto;html=1;entryX=0;entryY=0.5;entryDx=0;entryDy=0;" edge="1" parent="1" source="wflBRl-DDs7bufTYdtTd-20" target="wflBRl-DDs7bufTYdtTd-29">
          <mxGeometry relative="1" as="geometry">
            <Array as="points">
              <mxPoint x="240" y="790" />
            </Array>
          </mxGeometry>
        </mxCell>
        <mxCell id="wflBRl-DDs7bufTYdtTd-20" value="Dołącz" style="rounded=0;whiteSpace=wrap;html=1;" vertex="1" parent="1">
          <mxGeometry x="180" y="620" width="120" height="60" as="geometry" />
        </mxCell>
        <mxCell id="wflBRl-DDs7bufTYdtTd-28" style="edgeStyle=orthogonalEdgeStyle;rounded=0;orthogonalLoop=1;jettySize=auto;html=1;" edge="1" parent="1" source="wflBRl-DDs7bufTYdtTd-21" target="wflBRl-DDs7bufTYdtTd-27">
          <mxGeometry relative="1" as="geometry" />
        </mxCell>
        <mxCell id="wflBRl-DDs7bufTYdtTd-21" value="Wyślij prośbę o dołączenie" style="rounded=0;whiteSpace=wrap;html=1;" vertex="1" parent="1">
          <mxGeometry x="590" y="620" width="120" height="60" as="geometry" />
        </mxCell>
        <mxCell id="wflBRl-DDs7bufTYdtTd-33" style="edgeStyle=orthogonalEdgeStyle;rounded=0;orthogonalLoop=1;jettySize=auto;html=1;" edge="1" parent="1" source="wflBRl-DDs7bufTYdtTd-27" target="wflBRl-DDs7bufTYdtTd-32">
          <mxGeometry relative="1" as="geometry" />
        </mxCell>
        <mxCell id="wflBRl-DDs7bufTYdtTd-36" value="Nie" style="edgeLabel;html=1;align=center;verticalAlign=middle;resizable=0;points=[];" vertex="1" connectable="0" parent="wflBRl-DDs7bufTYdtTd-33">
          <mxGeometry x="-0.3111" y="-1" relative="1" as="geometry">
            <mxPoint as="offset" />
          </mxGeometry>
        </mxCell>
        <mxCell id="wflBRl-DDs7bufTYdtTd-34" style="edgeStyle=orthogonalEdgeStyle;rounded=0;orthogonalLoop=1;jettySize=auto;html=1;" edge="1" parent="1" source="wflBRl-DDs7bufTYdtTd-27" target="wflBRl-DDs7bufTYdtTd-29">
          <mxGeometry relative="1" as="geometry" />
        </mxCell>
        <mxCell id="wflBRl-DDs7bufTYdtTd-35" value="Tak" style="edgeLabel;html=1;align=center;verticalAlign=middle;resizable=0;points=[];" vertex="1" connectable="0" parent="wflBRl-DDs7bufTYdtTd-34">
          <mxGeometry x="-0.02" y="2" relative="1" as="geometry">
            <mxPoint as="offset" />
          </mxGeometry>
        </mxCell>
        <mxCell id="wflBRl-DDs7bufTYdtTd-27" value="Czy przyjęto" style="rhombus;whiteSpace=wrap;html=1;" vertex="1" parent="1">
          <mxGeometry x="610" y="750" width="80" height="80" as="geometry" />
        </mxCell>
        <mxCell id="wflBRl-DDs7bufTYdtTd-38" style="edgeStyle=orthogonalEdgeStyle;rounded=0;orthogonalLoop=1;jettySize=auto;html=1;" edge="1" parent="1" source="wflBRl-DDs7bufTYdtTd-29" target="wflBRl-DDs7bufTYdtTd-37">
          <mxGeometry relative="1" as="geometry" />
        </mxCell>
        <mxCell id="wflBRl-DDs7bufTYdtTd-29" value="Przyjęto do grupy" style="rounded=0;whiteSpace=wrap;html=1;" vertex="1" parent="1">
          <mxGeometry x="390" y="760" width="120" height="60" as="geometry" />
        </mxCell>
        <mxCell id="wflBRl-DDs7bufTYdtTd-40" style="edgeStyle=orthogonalEdgeStyle;rounded=0;orthogonalLoop=1;jettySize=auto;html=1;" edge="1" parent="1" source="wflBRl-DDs7bufTYdtTd-32" target="wflBRl-DDs7bufTYdtTd-39">
          <mxGeometry relative="1" as="geometry" />
        </mxCell>
        <mxCell id="wflBRl-DDs7bufTYdtTd-32" value="Nie przyjęto do grupy" style="rounded=0;whiteSpace=wrap;html=1;" vertex="1" parent="1">
          <mxGeometry x="590" y="920" width="120" height="60" as="geometry" />
        </mxCell>
        <mxCell id="wflBRl-DDs7bufTYdtTd-42" style="edgeStyle=orthogonalEdgeStyle;rounded=0;orthogonalLoop=1;jettySize=auto;html=1;entryX=0.5;entryY=0;entryDx=0;entryDy=0;" edge="1" parent="1" source="wflBRl-DDs7bufTYdtTd-37" target="wflBRl-DDs7bufTYdtTd-41">
          <mxGeometry relative="1" as="geometry" />
        </mxCell>
        <mxCell id="wflBRl-DDs7bufTYdtTd-37" value="Aktywności grupowe..." style="rounded=0;whiteSpace=wrap;html=1;" vertex="1" parent="1">
          <mxGeometry x="390" y="850" width="120" height="60" as="geometry" />
        </mxCell>
        <mxCell id="wflBRl-DDs7bufTYdtTd-43" style="edgeStyle=orthogonalEdgeStyle;rounded=0;orthogonalLoop=1;jettySize=auto;html=1;entryX=1;entryY=0.5;entryDx=0;entryDy=0;" edge="1" parent="1" source="wflBRl-DDs7bufTYdtTd-39" target="wflBRl-DDs7bufTYdtTd-41">
          <mxGeometry relative="1" as="geometry" />
        </mxCell>
        <mxCell id="wflBRl-DDs7bufTYdtTd-39" value="Szukaj innej grupy..." style="rounded=0;whiteSpace=wrap;html=1;" vertex="1" parent="1">
          <mxGeometry x="590" y="1020" width="120" height="60" as="geometry" />
        </mxCell>
        <mxCell id="wflBRl-DDs7bufTYdtTd-41" value="" style="ellipse;whiteSpace=wrap;html=1;aspect=fixed;fillColor=#f5f5f5;fontColor=#333333;strokeColor=#666666;" vertex="1" parent="1">
          <mxGeometry x="425" y="1025" width="50" height="50" as="geometry" />
        </mxCell>
        <mxCell id="wflBRl-DDs7bufTYdtTd-44" value="Dawid Niedziński" style="rounded=0;whiteSpace=wrap;html=1;" vertex="1" parent="1">
          <mxGeometry x="600" y="20" width="180" height="50" as="geometry" />
        </mxCell>
      </root>
    </mxGraphModel>
  </diagram>
</mxfile>
